<?xml version="1.0" encoding="UTF-8" standalone="no"?>
<!-- Created with Inkscape (http://www.inkscape.org/) -->

<svg
   xmlns:dc="http://purl.org/dc/elements/1.1/"
   xmlns:cc="http://creativecommons.org/ns#"
   xmlns:rdf="http://www.w3.org/1999/02/22-rdf-syntax-ns#"
   xmlns:svg="http://www.w3.org/2000/svg"
   xmlns="http://www.w3.org/2000/svg"
   xmlns:sodipodi="http://sodipodi.sourceforge.net/DTD/sodipodi-0.dtd"
   xmlns:inkscape="http://www.inkscape.org/namespaces/inkscape"
   version="1.1"
   id="svg6167"
   width="297mm"
   height="210mm"
   viewBox="0 0 1122.5196 793.7008"
   sodipodi:docname="opticalparts.svg"
   inkscape:version="0.92.3 (2405546, 2018-03-11)">
  <metadata
     id="metadata6173">
    <rdf:RDF>
      <cc:Work
         rdf:about="">
        <dc:format>image/svg+xml</dc:format>
        <dc:type
           rdf:resource="http://purl.org/dc/dcmitype/StillImage" />
        <dc:title></dc:title>
      </cc:Work>
    </rdf:RDF>
  </metadata>
  <defs
     id="defs6171">
    <clipPath
       clipPathUnits="userSpaceOnUse"
       id="clipPath1148">
      <g
         id="use1150"
         inkscape:label="Clip">
        <ellipse
           style="fill:#000000;fill-opacity:1;stroke:#444444;stroke-width:1.0082258;stroke-miterlimit:10;stroke-dasharray:none;stroke-opacity:1"
           id="ellipse2249"
           cx="801.40637"
           cy="540.70856"
           rx="90.011147"
           ry="90.011787" />
      </g>
    </clipPath>
    <clipPath
       clipPathUnits="userSpaceOnUse"
       id="clipPath1193">
      <g
         inkscape:label="Clip"
         id="use1195">
        <g
           clip-path="url(#clipPath1148)"
           id="g2243">
          <g
             id="g2241"
             inkscape:label="Clip">
            <ellipse
               style="fill:#000000;fill-opacity:1;stroke:#444444;stroke-width:1.0082258;stroke-miterlimit:10;stroke-dasharray:none;stroke-opacity:1"
               id="ellipse2239"
               cx="801.40637"
               cy="540.70856"
               rx="90.011147"
               ry="90.011787" />
          </g>
        </g>
        <rect
           y="527.81885"
           x="711.35254"
           height="25.779478"
           width="21.754282"
           id="rect2245"
           style="fill:#ffffff;fill-opacity:1;stroke:none;stroke-width:0.9228825;stroke-miterlimit:10;stroke-dasharray:none;stroke-opacity:1" />
      </g>
    </clipPath>
  </defs>
  <sodipodi:namedview
     pagecolor="#ffffff"
     bordercolor="#666666"
     borderopacity="1"
     objecttolerance="10"
     gridtolerance="10"
     guidetolerance="10"
     inkscape:pageopacity="0"
     inkscape:pageshadow="2"
     inkscape:window-width="1920"
     inkscape:window-height="1001"
     id="namedview6169"
     showgrid="false"
     units="mm"
     inkscape:document-units="mm"
     inkscape:measure-start="287.888,633.67"
     inkscape:measure-end="105.48,631.291"
     inkscape:zoom="1.2609083"
     inkscape:cx="576.08291"
     inkscape:cy="395.11584"
     inkscape:window-x="-9"
     inkscape:window-y="-9"
     inkscape:window-maximized="1"
     inkscape:current-layer="g1291" />
  <g
     id="g1291">
    <path
       style="fill:#000000;fill-opacity:1;stroke:#444444;stroke-width:1.0082258;stroke-miterlimit:10;stroke-dasharray:none;stroke-opacity:1"
       d="m 285.90168,165.58215 a 90.011147,90.011787 0 0 1 -90.01115,90.01179 90.011147,90.011787 0 0 1 -90.01114,-90.01179 90.011147,90.011787 0 0 1 90.01114,-90.011784 90.011147,90.011787 0 0 1 90.01115,90.011784 z"
       id="path822" />
    <path
       style="fill:#000000;fill-opacity:1;stroke:#444444;stroke-width:1.0082258;stroke-miterlimit:10;stroke-dasharray:none;stroke-opacity:1"
       d="m 283.52244,426.50516 a 90.011147,90.011787 0 0 1 -90.01115,90.01178 90.011147,90.011787 0 0 1 -90.01115,-90.01178 90.011147,90.011787 0 0 1 90.01115,-90.01179 90.011147,90.011787 0 0 1 90.01115,90.01179 z"
       id="path822-7" />
    <path
       style="fill:#000000;fill-opacity:1;stroke:#444444;stroke-width:1.00157475;stroke-miterlimit:10;stroke-dasharray:none;stroke-opacity:1"
       d="m 380.3186,291.57254 h 101.95362 v 15.51983 H 380.3186 Z"
       id="rect854" />
    <path
       style="fill:#000000;fill-opacity:1;stroke:#444444;stroke-width:1.00157475;stroke-miterlimit:10;stroke-dasharray:none;stroke-opacity:1"
       d="m 381.32629,398.23526 h 101.95362 v 15.51983 H 381.32629 Z"
       id="rect854-3" />
    <path
       style="fill:#000000;fill-opacity:1;stroke:#444444;stroke-width:1.00157475;stroke-miterlimit:10;stroke-dasharray:none;stroke-opacity:1"
       d="m 427.44049,513.32532 h 25.43677 v 75.38656 h -25.43677 z"
       id="rect871" />
    <path
       style="fill:#000000;fill-opacity:1;stroke:#444444;stroke-width:1.00157475;stroke-miterlimit:10;stroke-dasharray:none;stroke-opacity:1"
       d="m 246.61847,606.11548 h 25.43677 v 75.38656 h -25.43677 z"
       id="rect871-5" />
    <path
       style="fill:#000000;fill-opacity:1;stroke:#444444;stroke-width:1.02624989;stroke-miterlimit:10;stroke-dasharray:none;stroke-opacity:1"
       d="m 675.29449,144.61333 a 49.555107,49.554276 0 0 1 -49.55511,49.55427 49.555107,49.554276 0 0 1 -49.55511,-49.55427 49.555107,49.554276 0 0 1 49.55511,-49.554278 49.555107,49.554276 0 0 1 49.55511,49.554278 z"
       id="path888" />
    <path
       style="fill:#000000;fill-opacity:1;stroke:#444444;stroke-width:1.02624989;stroke-miterlimit:10;stroke-dasharray:none;stroke-opacity:1"
       d="m 875.94347,128.30743 a 49.555107,49.554276 0 0 1 -49.5551,49.55428 49.555107,49.554276 0 0 1 -49.55511,-49.55428 49.555107,49.554276 0 0 1 49.55511,-49.554271 49.555107,49.554276 0 0 1 49.5551,49.554271 z"
       id="path888-1" />
    <path
       style="fill:#000000;fill-opacity:1;stroke:#444444;stroke-width:1.02624989;stroke-miterlimit:10;stroke-dasharray:none;stroke-opacity:1"
       d="m 879.90893,353.54187 a 49.555107,49.554276 0 0 1 -49.55511,49.55428 49.555107,49.554276 0 0 1 -49.55511,-49.55428 49.555107,49.554276 0 0 1 49.55511,-49.55428 49.555107,49.554276 0 0 1 49.55511,49.55428 z"
       id="path888-6" />
    <path
       style="fill:#000000;fill-opacity:1;stroke:#444444;stroke-width:1.02624989;stroke-miterlimit:10;stroke-dasharray:none;stroke-opacity:1"
       d="m 679.25988,363.8519 a 49.555107,49.554276 0 0 1 -49.55511,49.55427 49.555107,49.554276 0 0 1 -49.5551,-49.55427 49.555107,49.554276 0 0 1 49.5551,-49.55428 49.555107,49.554276 0 0 1 49.55511,49.55428 z"
       id="path888-9" />
    <path
       style="fill:#000000;fill-opacity:1;stroke:#444444;stroke-width:1.13191593;stroke-miterlimit:10;stroke-dasharray:none;stroke-opacity:1"
       d="m 675.63818,650.15344 a 54.657288,54.656719 0 0 1 -54.65728,54.65672 54.657288,54.656719 0 0 1 -54.65729,-54.65672 54.657288,54.656719 0 0 1 54.65729,-54.65672 54.657288,54.656719 0 0 1 54.65728,54.65672 z"
       id="path888-9-6" />
    <path
       style="fill:#000000;fill-opacity:1;stroke:#444444;stroke-width:1.13191593;stroke-miterlimit:10;stroke-dasharray:none;stroke-opacity:1"
       d="m 856.46027,540.70856 a 54.657288,54.656719 0 0 1 -54.65729,54.65672 54.657288,54.656719 0 0 1 -54.65729,-54.65672 54.657288,54.656719 0 0 1 54.65729,-54.65672 54.657288,54.656719 0 0 1 54.65729,54.65672 z"
       id="path888-9-6-5" />
    <path
       style="fill:#000000;fill-opacity:1;stroke:#444444;stroke-width:1.00157475;stroke-miterlimit:10;stroke-dasharray:none;stroke-opacity:1"
       d="m 949.31567,209.99458 h 56.69293 v 56.69292 h -56.69293 z"
       id="rect947" />
  </g>
  <path
     style="fill:#000000;fill-opacity:1;stroke:#444444;stroke-width:1.00157475;stroke-miterlimit:10;stroke-dasharray:none;stroke-opacity:1"
     id="path1097"
     sodipodi:type="arc"
     sodipodi:cx="425.88345"
     sodipodi:cy="26.000235"
     sodipodi:rx="9.5169487"
     sodipodi:ry="8.7238703"
     sodipodi:start="0"
     sodipodi:end="0.022243523"
     sodipodi:open="true"
     d="m 435.4004,26.000235 a 9.5169487,8.7238703 0 0 1 -0.002,0.194033" />
  <path
     style="fill:#000000;fill-opacity:1;stroke:#444444;stroke-width:1.00157475;stroke-miterlimit:10;stroke-dasharray:none;stroke-opacity:1"
     id="path1099"
     sodipodi:type="arc"
     sodipodi:cx="286.69809"
     sodipodi:cy="4.9836378"
     sodipodi:rx="5.9480929"
     sodipodi:ry="6.7411723"
     sodipodi:start="0"
     sodipodi:end="0.022243523"
     sodipodi:open="true"
     d="m 292.64618,4.9836378 a 5.9480929,6.7411723 0 0 1 -0.001,0.1499351" />
  <ellipse
     style="fill:#fffff4;fill-opacity:1;stroke:#444444;stroke-width:0.03873486;stroke-miterlimit:10;stroke-dasharray:none;stroke-opacity:1"
     id="path888-5-4-2"
     cx="972.315"
     cy="487.57224"
     rx="1.8703964"
     ry="1.8703963" />
</svg>
